<?xml version="1.0" encoding="iso-8859-1"?>
<!-- Uploaded to: SVG Repo, www.svgrepo.com, Generator: SVG Repo Mixer Tools -->
<svg fill="#000000" height="800px" width="800px" version="1.1" id="Layer_1" xmlns="http://www.w3.org/2000/svg" xmlns:xlink="http://www.w3.org/1999/xlink" 
	 viewBox="0 0 512 512" xml:space="preserve">
<g transform="translate(1 1)">
	<g>
		<g>
			<path d="M509.72,122.307c-1.707-2.56-4.267-4.267-7.68-4.267H350.064c-23.419-26.2-57.486-42.667-95.491-42.667
				s-72.072,16.467-95.491,42.667H7.107c-3.413,0-5.973,1.707-6.827,5.12c-1.707,2.56-1.707,5.973,0,8.533l34.133,51.2
				l32.017,48.026c0.043,1.413,0.455,2.816,1.263,4.028c13.83,20.745,34.587,36.624,57.893,45.815L94.147,385.987
				c-1.707,6.827,0.853,14.507,6.827,18.773c6.827,4.267,14.507,4.267,20.48,0l39.253-28.16c2.56-1.707,5.973-2.56,8.533-1.707
				c2.56,0.853,5.12,3.413,5.973,5.973l16.213,41.813c2.56,7.68,9.387,11.947,17.067,11.947c0.853,0,0.853,0,1.707,0
				c8.533-0.853,14.507-5.973,17.067-13.653l26.403-89.611c0.302,0.002,0.601,0.011,0.903,0.011c0.586,0,1.169-0.014,1.753-0.022
				l26.407,89.622c2.56,7.68,9.387,13.653,17.067,13.653h0.853c7.68,0,13.653-5.12,17.067-11.947l16.213-41.813
				c0.853-3.413,3.413-5.12,5.973-5.973c3.413-0.853,5.973,0,8.533,1.707l39.253,28.16c6.827,4.267,14.507,4.267,20.48,0
				s8.533-11.947,6.827-18.773l-31.291-106.911c23.815-9.188,43.904-25.075,57.744-45.836l34.133-51.2l34.133-51.2
				C511.427,128.28,511.427,124.867,509.72,122.307z M254.573,92.44c57.553,0,104.621,44.178,110.347,99.567
				c0.04,0.401,0.075,0.801,0.111,1.202c0.043,0.47,0.089,0.94,0.126,1.412c0.232,2.976,0.35,5.922,0.35,8.752
				c0,0.971-0.014,1.928-0.036,2.878c-0.164,6.478-0.883,12.813-2.102,18.964c-0.175,0.385-0.318,0.785-0.421,1.199l-5.973,19.627
				c0,0.065,0,0.129,0,0.194c-16.707,40.049-56.169,68.073-102.4,68.073c-6.2,0-12.276-0.512-18.194-1.482
				c-37.739-6.806-69.453-31.919-84.206-67.638c-0.158-0.315-0.344-0.601-0.53-0.887l-5.444-17.887
				c-0.089-0.178-0.185-0.353-0.284-0.526c-0.042-0.203-0.085-0.406-0.125-0.61c-0.119-0.598-0.234-1.198-0.343-1.799
				c-0.067-0.369-0.131-0.739-0.194-1.11c-0.086-0.502-0.17-1.005-0.249-1.509c-0.11-0.706-0.214-1.414-0.31-2.125
				c-0.023-0.166-0.047-0.332-0.069-0.498c-0.656-5.011-0.986-10.1-0.986-14.862c0-7.101,0.739-14.212,2.198-21.988
				c0.146-0.341,0.271-0.69,0.362-1.052c3.413-17.92,11.947-34.133,23.04-47.787c0.633-0.633,1.161-1.319,1.573-2.044
				C191.123,107.158,221.071,92.44,254.573,92.44z M146.2,135.107c-6.827,10.24-11.947,22.187-15.36,34.133H45.507L23.32,135.107
				H146.2z M127.427,186.307c-0.853,5.973-0.853,11.093-0.853,17.067s0,11.947,0.853,17.067H79.64l-22.187-34.133H127.427z
				 M93.293,237.507h37.868c1.052,3.826,2.277,7.578,3.665,11.251l-3.986,14.349C116.333,257.987,103.533,248.6,93.293,237.507z
				 M210.2,416.707c-0.853,0-0.853,0.853-1.707,0.853c-1.707,0-1.707-0.853-1.707-0.853l-16.213-41.813
				c-2.56-8.533-9.387-13.653-17.067-16.213c-2.56-0.853-5.12-0.853-7.68-0.853c-5.12,0-10.24,1.707-15.36,5.12l-39.253,28.16
				l33.108-113.052c0.057-0.147,0.121-0.288,0.172-0.441l1.726-5.944c19.629,31.557,52.899,52.879,89.581,58.851L210.2,416.707z
				 M358.68,363.8c-6.827-5.12-15.36-6.827-23.04-4.267c-7.68,1.707-13.653,7.68-17.067,15.36l-16.213,41.813
				c0,0-0.853,0.853-1.707,0.853c-1.707,0-1.707-0.853-1.707-0.853l-25.6-86.187c37.547-5.973,69.973-27.307,89.6-58.027
				l34.987,119.467L358.68,363.8z M379.176,263.59l-4.565-15.598c1.169-3.154,2.222-6.365,3.144-9.632h38.098
				C405.82,249.23,393.323,257.636,379.176,263.59z M429.507,220.44H381.72c0.853-5.12,0.853-11.093,0.853-17.067
				s0-11.093-0.853-17.067h70.827L429.507,220.44z M463.64,169.24h-85.333c-2.276-7.964-5.327-15.547-9.12-23.005
				c-1.797-3.607-3.759-7.115-5.876-10.517c-0.124-0.203-0.239-0.407-0.364-0.611H486.68L463.64,169.24z"/>
			<path d="M178.627,250.307c1.707,2.56,4.267,4.267,7.68,4.267h38.4l23.04,30.72c1.707,2.56,4.267,3.413,6.827,3.413
				s5.12-0.853,6.827-3.413l23.04-30.72h38.4c3.413,0,5.973-1.707,7.68-4.267s1.707-5.973,0-8.533l-20.48-36.693l20.48-40.107
				c1.707-2.56,1.707-5.973,0-8.533s-5.12-4.267-7.68-4.267h-38.4l-23.04-30.72c-1.707-2.56-4.267-3.413-6.827-3.413
				s-5.12,1.707-6.827,3.413l-23.04,30.72h-38.4c-2.56,0-5.973,1.707-7.68,4.267c-0.853,2.56-1.707,5.973,0,8.533l20.48,40.107
				l-20.48,36.693C176.92,244.333,176.92,247.747,178.627,250.307z M228.973,169.24c2.56,0,5.12-0.853,6.827-3.413l18.773-24.747
				l18.773,24.747c1.707,2.56,4.267,3.413,6.827,3.413h28.16l-16.213,32.427c-1.707,2.56-1.707,5.12,0,7.68l16.213,28.16h-28.16
				c-2.56,0-5.12,0.853-6.827,3.413l-18.773,24.747L235.8,240.92c-1.707-2.56-4.267-3.413-6.827-3.413h-28.16l15.36-28.16
				c0.853-2.56,1.707-5.12,0-7.68L199.96,169.24H228.973z"/>
		</g>
	</g>
</g>
</svg>